<?xml version="1.0" encoding="UTF-8" standalone="no"?>
<!-- Created with Inkscape (http://www.inkscape.org/) -->

<svg
   version="1.1"
   id="svg101"
   xml:space="preserve"
   width="377.95251"
   height="68.134666"
   viewBox="0 0 377.95252 68.134666"
   sodipodi:docname="U-Next logo.svg"
   inkscape:version="1.1.1 (c3084ef, 2021-09-22)"
   xmlns:inkscape="http://www.inkscape.org/namespaces/inkscape"
   xmlns:sodipodi="http://sodipodi.sourceforge.net/DTD/sodipodi-0.dtd"
   xmlns="http://www.w3.org/2000/svg"
   xmlns:svg="http://www.w3.org/2000/svg"><defs
     id="defs105"><clipPath
       clipPathUnits="userSpaceOnUse"
       id="clipPath115"><path
         d="M 0,56.693 H 283.465 V 0 H 0 Z"
         id="path113" /></clipPath></defs><sodipodi:namedview
     id="namedview103"
     pagecolor="#ffffff"
     bordercolor="#666666"
     borderopacity="1.0"
     inkscape:pageshadow="2"
     inkscape:pageopacity="0.0"
     inkscape:pagecheckerboard="0"
     showgrid="false"
     inkscape:zoom="2.9773139"
     inkscape:cx="189.76837"
     inkscape:cy="48.365743"
     inkscape:window-width="1401"
     inkscape:window-height="776"
     inkscape:window-x="0"
     inkscape:window-y="25"
     inkscape:window-maximized="0"
     inkscape:current-layer="g107" /><g
     id="g107"
     inkscape:groupmode="layer"
     inkscape:label="logo_lockup_horizontal_rgb"
     transform="matrix(1.3333333,0,0,-1.3333333,0,71.918798)"><path
       d="m 38.7319,24.3561 c 0,-9.507 -7.707,-17.214 -17.214,-17.214 -9.507,0 -17.214,7.707 -17.214,17.214 v 20.39 c 0,0.892 0.678,1.625 1.546,1.713 l 30.986,3.099 c 0.058,0.005 0.116,0.008 0.175,0.008 0.95,0 1.721,-0.771 1.721,-1.721 z m -0.86,29.583 c -0.174,0 -0.345,-0.009 -0.514,-0.026 0,0 -32.708,-3.27 -32.708,-3.271 -2.61,-0.258 -4.65,-2.46 -4.65,-5.138 v -21.148 c 0,-11.884 9.634,-21.518 21.518,-21.518 11.884,0 21.518,9.634 21.518,21.518 v 24.418 c 0,2.853 -2.312,5.165 -5.164,5.165 m -7.317,-10.828 c -0.058,0 -0.116,-0.003 -0.173,-0.009 l -18.071,-1.807 c -0.871,-0.085 -1.552,-0.819 -1.552,-1.713 v -15.226 c 0,-5.942 4.817,-10.759 10.759,-10.759 5.942,0 10.759,4.817 10.759,10.759 v 17.034 c 0,0.95 -0.771,1.721 -1.722,1.721"
       style="fill:#000000;fill-opacity:1;fill-rule:nonzero;stroke:none"
       id="path119" /><path
       d="m 165.2891,51.6163 h -6.637 c -0.611,0 -1.106,-0.495 -1.106,-1.106 v -28.465 l -13.203,28.295 c -0.364,0.777 -1.146,1.276 -2.004,1.276 h -6.914 c -1.222,0 -2.212,-0.991 -2.212,-2.212 V 6.2673 c 0,-0.609 0.496,-1.107 1.106,-1.107 h 6.636 c 0.612,0 1.106,0.498 1.106,1.107 v 28.466 l 13.205,-28.296 c 0.364,-0.778 1.144,-1.277 2.004,-1.277 h 6.913 c 1.221,0 2.212,0.992 2.212,2.213 v 43.137 c 0,0.611 -0.495,1.106 -1.106,1.106"
       style="fill:#000000;fill-opacity:1;fill-rule:nonzero;stroke:none"
       id="path123" /><path
       d="m 203.6387,51.6163 h -25.44 c -0.916,0 -1.66,-0.743 -1.66,-1.659 V 6.8203 c 0,-0.916 0.744,-1.66 1.66,-1.66 h 25.44 c 0.61,0 1.105,0.496 1.105,1.107 v 6.083 c 0,0.611 -0.495,1.106 -1.105,1.106 h -17.145 v 29.864 h 17.145 c 0.61,0 1.105,0.495 1.105,1.107 v 6.083 c 0,0.61 -0.495,1.106 -1.105,1.106"
       style="fill:#000000;fill-opacity:1;fill-rule:nonzero;stroke:none"
       id="path127" /><path
       d="m 122.3257,32.8131 h -11.614 c -0.61,0 -1.106,-0.495 -1.106,-1.106 v -6.083 c 0,-0.611 0.496,-1.107 1.106,-1.107 h 11.614 c 0.61,0 1.106,0.496 1.106,1.107 v 6.083 c 0,0.611 -0.496,1.106 -1.106,1.106"
       style="fill:#000000;fill-opacity:1;fill-rule:nonzero;stroke:none"
       id="path131" /><path
       d="m 98.7188,51.6163 h -7.743 c -0.611,0 -1.106,-0.495 -1.106,-1.106 v -29.864 c 0,-4.765 -2.238,-7.19 -6.636,-7.19 -4.398,0 -6.637,2.425 -6.637,7.19 v 29.864 c 0,0.611 -0.496,1.106 -1.106,1.106 h -7.742 c -0.61,0 -1.106,-0.495 -1.106,-1.106 v -29.864 c 0,-10.996 5.595,-16.591 16.591,-16.591 10.996,0 16.591,5.595 16.591,16.591 v 29.864 c 0,0.611 -0.494,1.106 -1.106,1.106"
       style="fill:#000000;fill-opacity:1;fill-rule:nonzero;stroke:none"
       id="path135" /><path
       d="m 282.3584,51.6163 h -28.758 c -0.611,0 -1.106,-0.496 -1.106,-1.106 v -6.083 c 0,-0.612 0.495,-1.107 1.106,-1.107 h 9.402 V 6.2673 c 0,-0.611 0.495,-1.107 1.106,-1.107 h 7.742 c 0.612,0 1.107,0.496 1.107,1.107 v 37.053 h 9.401 c 0.611,0 1.106,0.495 1.106,1.107 v 6.083 c 0,0.61 -0.495,1.106 -1.106,1.106"
       style="fill:#000000;fill-opacity:1;fill-rule:nonzero;stroke:none"
       id="path139" /><path
       d="m 190.3652,32.8131 c -0.61,0 -1.105,-0.496 -1.105,-1.106 v -6.083 c 0,-0.612 0.495,-1.107 1.105,-1.107 h 11.614 c 0.611,0 1.106,0.495 1.106,1.107 v 6.083 c 0,0.61 -0.495,1.106 -1.106,1.106 z"
       style="fill:#000000;fill-opacity:1;fill-rule:nonzero;stroke:none"
       id="path143" /><path
       d="m 246.5947,51.6163 h -8.162 c -0.644,0 -1.23,-0.373 -1.503,-0.958 l -6.467,-13.855 -6.466,13.855 c -0.271,0.585 -0.859,0.958 -1.503,0.958 h -8.162 c -0.835,0 -1.367,-0.89 -0.974,-1.627 l 11.52,-21.601 -11.52,-21.601 c -0.393,-0.737 0.139,-1.627 0.974,-1.627 h 8.162 c 0.644,0 1.232,0.373 1.503,0.959 l 6.466,13.856 6.467,-13.856 c 0.273,-0.586 0.859,-0.959 1.503,-0.959 h 8.162 c 0.835,0 1.369,0.89 0.975,1.627 l -11.521,21.601 11.521,21.601 c 0.394,0.737 -0.14,1.627 -0.975,1.627"
       style="fill:#000000;fill-opacity:1;fill-rule:nonzero;stroke:none"
       id="path147" /></g></svg>
