<?xml version="1.0"?>
<svg
   width="675.71942"
   height="153.35902"
   viewBox="0 0 675.71942 153.35902"
   xmlns="http://www.w3.org/2000/svg">
<g
     transform="translate(392.88451,-174.08131)"><path
       style="fill:#000000"
       d="m -381.48331,327.20052 c -5.06889,-0.84082 -10.20166,-5.81366 -11.12894,-10.78218 -0.36489,-1.95514 -0.36212,-89.33833 0.003,-93.29566 1.06835,-11.58061 4.34895,-20.11558 10.98343,-28.575 1.91785,-2.44539 6.09881,-6.63638 8.59138,-8.61198 7.25439,-5.74982 16.23995,-9.67121 25.82925,-11.27216 4.26173,-0.7115 12.8438,-0.6425 17.15102,0.13789 11.24723,2.03779 20.81575,6.85649 28.68613,14.4463 9.5672,9.22615 14.912,20.61486 15.89775,33.87495 0.17505,2.35476 0.27408,19.75253 0.27185,47.75729 -0.003,37.24656 -0.0622,44.32988 -0.38308,45.84431 -2.21301,10.44343 -15.83227,14.14797 -23.556,6.4074 -1.76054,-1.76437 -2.78764,-3.47892 -3.49673,-5.83714 -0.42982,-1.42947 -0.47141,-2.99073 -0.47172,-17.70728 -1.9e-4,-8.87677 -0.0967,-16.28841 -0.2144,-16.47031 -0.16881,-0.26083 -5.62635,-0.33073 -25.82281,-0.33073 h -25.60876 l -0.1725,2.81929 c -0.0949,1.5506 -0.1725,8.86709 -0.1725,16.25885 0,8.76205 -0.10145,13.92755 -0.29149,14.84165 -1.07255,5.15894 -5.68132,9.41188 -11.28129,10.41027 -2.31363,0.41248 -2.78497,0.42073 -4.81355,0.0842 z m 68.09347,-72.08215 c 0.36736,-0.36736 0.41578,-2.02424 0.41578,-14.2283 0,-7.90923 -0.11715,-14.77073 -0.27411,-16.05454 -1.75988,-14.39456 -14.12478,-24.60315 -28.1686,-23.25629 -11.02819,1.05765 -19.83226,8.65958 -22.80525,19.69136 l -0.71303,2.64583 -0.0997,15.37437 c -0.0907,13.98751 -0.0605,15.41356 0.33481,15.80885 0.39685,0.39685 2.61991,0.43449 25.6644,0.43449 22.5835,0 25.27352,-0.0436 25.64568,-0.41577 z m 443.46056,72.1064 c -5.62228,-0.73908 -10.01452,-4.58026 -11.70528,-10.23671 -0.42261,-1.41383 -0.46613,-5.2244 -0.59311,-51.92892 -0.13107,-48.21231 -0.15832,-50.46063 -0.62686,-51.72604 -1.74434,-4.71107 -4.69125,-8.04074 -9.03517,-10.20872 -3.777,-1.88504 -7.73876,-2.21569 -11.76953,-0.9823 -5.867367,1.79538 -9.890656,5.88277 -11.670852,11.8568 -0.583159,1.95698 -0.592416,2.24985 -0.794315,25.13109 -0.112354,12.73308 -0.199663,34.99776 -0.194021,49.47708 0.0075,19.23477 -0.07445,26.7893 -0.304237,28.04584 -0.655907,3.58676 -3.305937,7.21969 -6.495313,8.90445 -2.355561,1.2443 -4.134655,1.6793 -6.853618,1.67574 -4.159123,-0.005 -7.104194,-1.15339 -9.839398,-3.83528 -1.981895,-1.94326 -3.377394,-4.62359 -3.7872,-7.27408 -0.16687,-1.07926 -0.318993,-19.82261 -0.408441,-50.32479 -0.159106,-54.25584 -0.03635,-50.92592 -2.026739,-54.97937 -3.435272,-6.996 -12.16434,-10.96642 -19.268895,-8.76448 -6.575429,2.03796 -10.499429,5.93204 -12.256743,12.16328 l -0.571125,2.02515 -0.139166,50.40313 -0.139165,50.40312 -0.614217,1.45521 c -1.801454,4.26802 -5.105692,7.26325 -9.184617,8.32567 -1.9959836,0.51989 -5.6584306,0.51989 -7.6544149,0 -5.2556317,-1.36892 -9.2344389,-5.97994 -9.9178289,-11.49373 -0.379624,-3.06292 -0.383624,-97.16817 -0.0043,-101.21006 0.8441953,-8.9954 4.7820336,-18.00803 10.8992575,-24.94541 6.4450723,-7.30919 15.3950463,-12.37588 25.4569053,-14.41147 2.506307,-0.50704 3.740512,-0.59009 8.614006,-0.57963 4.873469,0.0105 6.0866,0.0977 8.466666,0.6086 7.582564,1.62777 13.958652,4.705 20.090595,9.69613 l 2.07585,1.68966 1.815215,-1.45805 c 11.118516,-8.93082 23.708949,-12.26784 37.407401,-9.91463 15.89453,2.73049 29.41592,14.35711 34.4907,29.65751 2.0363,6.13938 1.85604,0.66308 1.94585,59.11521 0.0729,47.47493 0.0407,52.50504 -0.34486,53.8314 -1.90123,6.53998 -8.28845,10.69915 -15.06303,9.8086 z m 56.22395,-0.005 c -0.80036,-0.13722 -2.34818,-0.68584 -3.43958,-1.21914 -3.29758,-1.61133 -5.70492,-4.53178 -7.05116,-8.55409 -0.4636,-1.38513 -0.49099,-3.51296 -0.56876,-44.18542 -0.0827,-43.26667 0.0151,-49.32122 0.89107,-55.15335 2.10965,-14.04582 10.59519,-26.93253 23.13301,-35.13135 17.16836,-11.22684 39.49158,-11.87645 57.01336,-1.6591 9.27517,5.40856 16.71518,13.35391 21.2878,22.73372 2.52736,5.18436 4.06879,10.19473 4.80915,15.63196 0.44759,3.28716 0.66298,93.89928 0.22924,96.44062 -0.87063,5.10118 -4.8401,9.38197 -9.92867,10.70737 -1.97626,0.51476 -5.3902,0.51993 -7.34357,0.0111 -4.53955,-1.1824 -7.78559,-4.17403 -9.52498,-8.77847 -0.57291,-1.51658 -0.58523,-1.83256 -0.71524,-18.3442 l -0.1323,-16.80104 -25.64814,-0.0675 c -20.34365,-0.0535 -25.69176,10e-4 -25.85897,0.26458 -0.11595,0.18263 -0.21265,7.42102 -0.21487,16.08532 -0.003,13.22547 -0.0687,16.0063 -0.40665,17.3302 -1.27117,4.9791 -4.97661,8.83767 -9.86565,10.27335 -1.84023,0.54038 -4.84411,0.72759 -6.66509,0.41537 z m 68.65937,-87.69302 c 0,-15.30941 -0.0114,-15.65535 -0.59393,-17.9406 -2.04351,-8.01735 -7.17464,-14.3478 -14.41759,-17.78746 -4.7886,-2.27409 -11.3489,-2.97184 -16.42282,-1.74672 -4.95582,1.19661 -9.3766,3.69636 -12.77016,7.22094 -3.34722,3.47645 -5.38193,7.0838 -6.67483,11.83384 l -0.69272,2.545 -0.0926,15.44509 c -0.0509,8.4948 -0.0296,15.60937 0.0475,15.81016 0.11802,0.30756 4.19518,0.35445 25.87863,0.29762 l 25.73852,-0.0675 z m -485.24581,85.96447 c -4.81062,-0.43643 -7.72744,-1.2202 -11.43087,-3.07156 -8.86202,-4.43016 -14.19436,-11.97173 -15.39562,-21.77416 -0.20284,-1.65517 -0.29172,-16.9432 -0.2915,-50.13854 3.5e-4,-52.43417 -0.0657,-50.14649 1.59015,-55.0888 1.38688,-4.13957 3.0151,-6.87311 5.91581,-9.93177 4.10325,-4.32668 9.79564,-7.47332 15.90786,-8.79355 2.55199,-0.55123 3.22763,-0.57139 19.05,-0.56844 15.62681,0.003 16.54056,0.0297 19.28245,0.56413 18.09468,3.5272 32.33067,17.43632 36.15162,35.32155 0.88695,4.15165 1.01883,11.18525 0.28973,15.45255 -0.94185,5.51258 -3.18923,11.37008 -6.17832,16.10297 -0.58546,0.92701 -0.95943,1.77757 -0.83102,1.89012 0.1284,0.11255 1.13824,0.87543 2.24409,1.6953 2.89638,2.14736 6.99324,6.52368 9.20875,9.83692 8.99121,13.44607 10.11584,29.65792 3.04692,43.92214 -4.41016,8.89918 -12.0144,16.37129 -21.14547,20.77807 -4.98132,2.40405 -8.23333,3.24581 -14.81667,3.83518 -5.78269,0.5177 -36.79529,0.49432 -42.59791,-0.0321 z m 34.13124,-27.07724 c 7.63553,-0.21568 7.68343,-0.22062 9.82828,-1.01463 5.18281,-1.91862 9.27738,-6.29211 10.83263,-11.57052 0.67764,-2.29985 0.60842,-6.31151 -0.15066,-8.73125 -1.54249,-4.91704 -5.23815,-9.05013 -9.95921,-11.138 -3.08771,-1.36554 -4.44809,-1.43994 -24.97083,-1.36578 l -18.9177,0.0684 v 15.47813 c 0,14.69719 0.0252,15.5197 0.49888,16.30216 0.69173,1.14257 1.83789,1.74748 3.719,1.9628 2.27413,0.26029 20.02527,0.26562 29.11961,0.009 z m -8.73124,-61.13484 c 4.33546,-0.29891 6.16065,-0.71677 8.83474,-2.02261 2.33372,-1.13964 5.53581,-4.06956 6.87547,-6.29106 2.92549,-4.85125 3.19471,-10.79399 0.72138,-15.92396 -2.35334,-4.8811 -5.76774,-7.67641 -11.16365,-9.1395 -1.94184,-0.52653 -2.89171,-0.57633 -13.15664,-0.6898 -6.08503,-0.0673 -11.70472,-0.0422 -12.48821,0.0557 -1.63303,0.20403 -2.895,0.95556 -3.76003,2.23918 l -0.60161,0.89273 v 15.3949 c 0,8.46719 0.0794,15.47427 0.17639,15.57129 0.27207,0.27206 20.38802,0.20094 24.56216,-0.0868 z m 108.082275,88.35681 c -11.994815,-1.16524 -21.226645,-7.67672 -25.388095,-17.90697 -1.0613,-2.60904 -1.59688,-4.99481 -1.87449,-8.35008 -0.35426,-4.28166 -0.32763,-93.17886 0.029,-96.98661 0.49773,-5.31347 1.84918,-9.29389 4.50213,-13.2601 4.28454,-6.40546 9.95156,-10.13764 18.87864,-12.43308 2.049405,-0.52697 2.775405,-0.54007 29.936182,-0.54007 31.796457,0 29.507041,-0.16442 33.129027,2.3792 3.179929,2.23318 5.107336,5.35598 5.657322,9.16604 0.912661,6.32253 -2.861138,12.14997 -9.617024,14.85046 -1.049565,0.41954 -3.271751,0.46901 -26.545453,0.59098 -24.947391,0.13074 -25.416333,0.14271 -26.316678,0.67164 -0.504174,0.29619 -1.159021,0.95103 -1.455211,1.45521 -0.5252,0.894 -0.53853,1.30285 -0.53853,16.52709 v 15.61042 l 22.092711,0.14991 c 16.314012,0.1107 22.401127,0.23537 23.271835,0.47663 5.472078,1.51626 9.546521,6.8984 9.532587,12.59207 -0.0151,6.17182 -4.23834,11.78226 -10.098046,13.41495 -0.826793,0.23036 -7.179233,0.35992 -22.970959,0.46847 l -21.828128,0.15006 V 280.008 c 0,14.50979 0.0272,15.4006 0.49943,16.35121 0.31768,0.63951 0.895403,1.21723 1.587504,1.58751 l 1.08807,0.58211 25.267707,0.13229 25.267708,0.13229 1.788677,0.71678 c 3.573156,1.43188 5.999863,3.64687 7.621008,6.95614 1.920878,3.92112 1.958452,7.81302 0.113182,11.72329 -1.63104,3.45629 -5.296521,6.32183 -9.258284,7.23778 -1.587187,0.36695 -50.798265,0.55571 -54.371872,0.20855 z"
       id="path1" /></g></svg>
