<?xml version="1.0" encoding="UTF-8"?>
<svg data-name="레이어 1" viewBox="0 0 799 811" xmlns="http://www.w3.org/2000/svg">
  <path d="m77.058 299.52 212.2-32.256-30.407-214.47c4.5967-20.663 18.83-22.201 31.751-26.343l177.49-24.473c16.039-1.4919 30.23.87396 33.63 30.782l26.899 205.03 212.11-28.823c18.331-.48776 33.994 4.3968 35.169 38.455l19.734 160.62c6.1427 25.114-4.025 38.956-33.355 39.555l-200.35 27.757 28.69 214.09c-5.1717 13.196-7.5184 28.895-27.864 28.644l-190.32 24.827c-16.644-1.0676-20.116-14.707-22.805-29.093l-28.811-205.94-207.04 29.501c-20.459-.27897-38.521-4.291-38.006-37.228l-23.217-164.06c-1.2864-16.126 2.0375-30.334 24.497-36.575z" fill="#ffd22d"/>
  <path d="m332.49 203.49 49.589-127.88 87.342 110.32z" fill="none" stroke="#c3872f" stroke-width="24.5"/>
  <rect transform="rotate(-7.732)" x="65.506" y="363.04" width="126.69" height="124.24" ry="0" fill="none" stroke="#c3872f" stroke-width="24.5"/>
  <ellipse cx="661.7" cy="339.15" rx="67.576" ry="68.867" fill="none" stroke="#c3872f" stroke-width="24.5"/>
  <path d="M513.9 539.61 400.73 685.06m-17.471-131.8 147.86 112.17" fill="#c3872f" stroke="#c3872f"  stroke-width="24.5"/>
  <path d="m788.98 440.24-49.652 64.902c-4.7273 5.0375-11.267 8.7659-22.744 8.9287l-147.03 18.218-7.6296-56.933 201.8-27.974c9.5707.2203 14.639-1.1346 25.255-7.1411zM263.65 40.946l-50.185 64.794c-4.2081 5.7297-5.4924 13.815-3.6352 24.432l19.436 146.21 59.985-9.1184-28.435-200.56c-4.2522-17.732.0684-20.374 2.8337-25.754zM55.666 314.54 7.715 375.149c-5.848 7.1287-7.979 16.121-6.2077 27.068l26.03 179.42c6.9666 27.174 20.404 21.217 33.33 22.024l208.1-28.641 29.683 205.72c-1.285 17.375 10.733 26.61 35.899 27.799l177.6-24.502c9.459-.77717 18.276-3.2685 24.245-13.372l44.921-60.428c-5.2042 6.765-11.833 7.5175-18.564 7.8378l-174.53 22.768c-20.689 6.8076-34.83.37983-38.588-27.034l-29.334-205.87-206.51 29.426c-29.072.91474-39.031-13.696-38.006-37.228l-23.217-164.06c-1.7138-7.3536.46858-14.464 3.1046-21.547z" fill="#9e6f23"/>
</svg>
