<?xml version="1.0" encoding="UTF-8"?>
<svg width="400" height="400" version="1.2" viewBox="0 0 300 300" xmlns="http://www.w3.org/2000/svg" xmlns:xlink="http://www.w3.org/1999/xlink">
 <defs>
  <clipPath id="clip17">
   <path d="m765.8 478.59h125.27v125.27h-125.27z"/>
  </clipPath>
 </defs>
 <g transform="matrix(2.3471 0 0 2.3471 2.9657 3.8439)" fill="#0c0c1c">
  <g transform="translate(-765.8 -478.59)" fill="#0c0c1c">
   <g clip-path="url(#clip17)" fill="#0c0c1c">
    <path d="m842.92 521.87 4.0273-13.555 4.125 13.555zm20.086 11.84-10.574-31.988c-0.23438-0.70703-0.50391-1.168-0.80469-1.3867-0.30078-0.21484-0.78906-0.32812-1.457-0.32812h-5.8398c-0.67187 0-1.168 0.12109-1.4883 0.35546-0.3164 0.23047-0.57812 0.6875-0.77734 1.3594l-10.672 31.988c-0.13671 0.16797-0.20312 0.5-0.20312 1.0039 0 0.77343 0.47266 1.1562 1.4102 1.1562h4.3789c0.40625 0 0.73047-0.0156 0.98047-0.0469 0.25391-0.0351 0.45313-0.12109 0.60547-0.2539 0.15234-0.13282 0.28516-0.33594 0.40234-0.60157 0.11719-0.27343 0.24219-0.625 0.37891-1.0586l1.6602-5.5938h12.031l1.7109 5.4922c0.13672 0.46875 0.26953 0.83984 0.40235 1.1094 0.13281 0.26563 0.28515 0.47656 0.45312 0.62891 0.16797 0.14844 0.36719 0.24219 0.60547 0.27734 0.23047 0.0312 0.53516 0.0469 0.90625 0.0469h4.6797c0.9375 0 1.4102-0.38282 1.4102-1.1562 0-0.23438-8e-3 -0.39453-0.0234-0.47657-0.0195-0.0859-0.0781-0.26171-0.17578-0.52734m-5.1914 12.875h-3.375c-0.87109 0-1.4492 0.12891-1.7344 0.37891-0.28515 0.2539-0.42578 0.76562-0.42578 1.5352v18.988l-9.9688-19.039c-0.40234-0.80469-0.79687-1.3164-1.1836-1.5352s-1.0664-0.32813-2.0391-0.32813h-3.1211c-0.87109 0-1.4531 0.12891-1.7383 0.37891-0.28125 0.2539-0.42578 0.76562-0.42578 1.5352v32.035c0 0.77734 0.13281 1.2852 0.40234 1.5391 0.26954 0.25 0.83985 0.375 1.7109 0.375h3.4258c0.8711 0 1.4492-0.125 1.7344-0.375 0.28515-0.2539 0.42578-0.76172 0.42578-1.5391v-19.039l9.9688 19.09c0.40234 0.80859 0.79687 1.3203 1.1836 1.5352 0.38672 0.22265 1.0664 0.32812 2.0391 0.32812h3.1211c0.87109 0 1.4492-0.125 1.7344-0.375 0.28516-0.2539 0.42969-0.76172 0.42969-1.5391v-32.035c0-0.76953-0.14453-1.2812-0.42969-1.5352-0.28515-0.25-0.86328-0.37891-1.7344-0.37891m16.719-3.0312 8.6914 8.6875v43.77h-109.57v-43.773l8.6797-8.6836c1.2852-1.2852 1.2852-3.3672 0-4.6484l-8.6797-8.6836v-43.777h109.57v43.77l-8.6914 8.6875c-1.2852 1.2852-1.2852 3.3672 0 4.6523m16.543-64.961h-125.27v55.398l7.2383 7.2383-7.2383 7.2383v55.395h125.27v-55.395l-7.2383-7.2383 7.2383-7.2383zm-69.578 96.398h-14.148l14.898-20.949c0.23438-0.33594 0.38672-0.60547 0.45703-0.80859 0.0664-0.19922 0.0977-0.4336 0.0977-0.70313v-4.0312c0-0.76953-0.14062-1.2812-0.42578-1.5352-0.28906-0.25-0.87109-0.37891-1.7461-0.37891h-21.512c-0.77735 0-1.2812 0.14453-1.5156 0.42578-0.23828 0.28906-0.35547 0.88281-0.35547 1.793v3.0195c0 0.90625 0.11719 1.5039 0.35547 1.7891 0.23438 0.28516 0.73828 0.42969 1.5156 0.42969h13.277l-14.695 20.949c-0.3711 0.47266-0.5586 0.94531-0.5586 1.4102v4.1328c0 0.77734 0.14454 1.2852 0.4336 1.5391 0.28125 0.25 0.86328 0.375 1.7422 0.375h22.18c0.77735 0 1.2812-0.14062 1.5195-0.42578 0.23438-0.28516 0.35157-0.87891 0.35157-1.7891v-3.0234c0-0.90625-0.11719-1.5-0.35157-1.7852-0.23828-0.28906-0.74218-0.43359-1.5195-0.43359m-6.5859-53.426c0 1.3789-0.0899 2.5312-0.27735 3.4531-0.18359 0.92188-0.48437 1.6719-0.90625 2.2422-0.41797 0.56641-0.96875 0.96875-1.6602 1.207-0.6875 0.23438-1.5352 0.35157-2.5391 0.35157h-4.1289v-21.762h4.1289c1.9102 0 3.2852 0.5664 4.125 1.6875 0.83985 1.125 1.2578 2.9844 1.2578 5.5703zm7.1992-14.555c-1.1758-2.3867-2.7773-4.1484-4.8047-5.2891-2.0352-1.1445-4.5898-1.7148-7.6797-1.7148h-10.316c-0.875 0-1.4531 0.1289-1.7383 0.3789-0.28515 0.25391-0.42969 0.76563-0.42969 1.5352v32.039c0 0.77344 0.14454 1.2812 0.42969 1.5352 0.28516 0.25 0.86328 0.375 1.7383 0.375h11.574c5.4727 0 9.2148-2.332 11.227-7 0.46875-1.0742 0.79688-2.1562 0.98047-3.25 0.1875-1.0898 0.27735-2.4766 0.27735-4.1524v-6.8008c0-1.9141-0.0899-3.4258-0.27735-4.5352-0.18359-1.1094-0.51172-2.1484-0.98047-3.1211" fill="#0c0c1c"/>
   </g>
  </g>
 </g>
</svg>
