<svg xmlns="http://www.w3.org/2000/svg" xmlns:xlink="http://www.w3.org/1999/xlink" width="499.733" height="134.103" viewBox="0 0 499.733 134.103"><path fill="#E60012" d="M499.733 134.103H0V0h499.733"/><defs><path id="a" d="M-171.883-239.093h858.898v612.288h-858.898z"/></defs><clipPath id="b"><use xlink:href="#a" overflow="visible"/></clipPath><path clip-path="url(#b)" fill="#FFF" d="M38.933 50.719a7.677 7.677 0 0 0 7.678 7.677 7.677 7.677 0 0 0 7.677-7.677 7.677 7.677 0 1 0-15.355 0m48.01-24.499H74.309a.531.531 0 0 0-.532.532v80.532c0 .33.267.6.598.6h12.568c11.564 0 20.939-9.375 20.939-20.94V47.159c0-11.564-9.375-20.939-20.939-20.939m2.99 53.172a8.256 8.256 0 0 1-8.256-8.257 8.257 8.257 0 0 1 16.513 0 8.257 8.257 0 0 1-8.257 8.257M65.007 26.22H47.158c-11.564 0-20.939 9.375-20.939 20.939v39.784c0 11.565 9.375 20.94 20.939 20.94h17.849a.6.6 0 0 0 .6-.6V26.818a.598.598 0 0 0-.6-.598m-5.984 75.081H47.158c-3.835 0-7.44-1.493-10.151-4.204a14.258 14.258 0 0 1-4.204-10.153V47.159c0-3.836 1.492-7.441 4.203-10.15a14.26 14.26 0 0 1 10.152-4.205h11.865v68.497zm98.593-62.315c-17.164 0-31.079 13.713-31.079 30.628s13.915 30.629 31.079 30.629c17.165 0 31.079-13.714 31.079-30.629s-13.914-30.628-31.079-30.628m0 49.55c-10.097 0-18.284-8.472-18.284-18.922 0-10.45 8.187-18.921 18.284-18.921 10.098 0 18.283 8.471 18.283 18.921s-8.185 18.922-18.283 18.922m170.077 9.84h12.354V40.853h-12.354v57.523zm145.82-46.306V40.853h-47.498v57.523h47.498V87.158H438.37V74.163h33.438v-10.65H438.37V52.07h35.143zm-76.514 25.885l-28.636-37.103h-11.589v57.523h11.632V60.02l30.617 38.356h10.188V40.853h-12.213v37.102zm-154.112 0l-28.636-37.103h-11.589v57.523h11.632V60.02l30.617 38.356h10.188V40.853h-12.212v37.102zm41.294-37.102h-12.354v57.523h43.878V87.158h-31.523V40.853z"/></svg>